<svg width="24px" height="24px" viewBox="0 0 50 50" fill="#fafafa" xmlns="http://www.w3.org/2000/svg"><path d="M25.108,0C11.357,0,0.171,9.396,0.171,20.946c0,6.226,3.339,12.146,9.01,16.104c-0.18,3.082-2.679,7.061-3.664,8.358
		c-0.686,0.903-0.803,2.121-0.301,3.14c0.506,1.02,1.545,1.666,2.683,1.666c6.839,0,14.323-5.353,17.957-8.33
		c13.403-0.334,24.188-9.599,24.188-20.938C50.044,9.396,38.858,0,25.108,0z M25.12,35.906h-0.003
		c-0.82-0.057-1.662,0.168-2.291,0.707c-2.559,2.191-5.783,4.473-8.912,5.96c0.938-2.38,1.565-5.128,1.1-7.738
		c-0.15-0.846-0.659-1.587-1.395-2.032c-4.742-2.877-7.463-7.199-7.463-11.856c0-8.249,8.502-14.961,18.952-14.961
		c10.449,0,18.951,6.712,18.951,14.961S35.56,35.906,25.12,35.906z"/></svg>
