<svg width="24px" height="24px" viewBox="0 0 200 200" fill="#fafafa" xmlns="http://www.w3.org/2000/svg"><path d="M135.635,130.125c12.524-13.833,20.227-32.108,20.227-52.194C155.862,34.959,120.901,0,77.931,0
			C34.961,0,0,34.959,0,77.931c0,42.972,34.961,77.931,77.931,77.931c20.086,0,38.36-7.703,52.194-20.227l51.103,51.103l5.51-5.51
			L135.635,130.125z M77.931,148.069c-38.675,0-70.138-31.465-70.138-70.138c0-38.673,31.463-70.138,70.138-70.138
			c38.675,0,70.138,31.465,70.138,70.138C148.069,116.604,116.606,148.069,77.931,148.069z"/></svg>
